<svg xmlns="http://www.w3.org/2000/svg" width="96" height="28" fill="white" viewBox="0 0 96 28">
  <path fill="white"
    d="M93.7603 22.8032c-.6038 0-1.0676-.1619-1.3916-.4859-.3239-.3387-.4859-.7878-.4859-1.3473 0-.5743.162-1.0234.4859-1.3474.324-.3239.7878-.4859 1.3916-.4859.6037 0 1.0601.162 1.3694.4859.3092.324.4638.7731.4638 1.3474 0 .5595-.1546 1.0086-.4638 1.3473-.3093.324-.7657.4859-1.3694.4859ZM88.0536 22.67c-.3681-.4418-.6479-.9498-.8393-1.5241-.1767-.5742-.2651-1.3841-.2651-2.4296V5h3.0039v13.3629c0 1.1486.1252 2.0321.3755 2.6505.2503.6037.5743 1.1117.9719 1.524v.1326h-3.2469ZM77.6446 22.9576c-1.178 0-2.1646-.2871-2.9597-.8614-.7952-.589-1.3989-1.4062-1.8112-2.4517-.3976-1.0455-.5964-2.2529-.5964-3.6224 0-1.3841.1988-2.5915.5964-3.6223.4123-1.0307 1.016-1.8333 1.8112-2.4075.8099-.5743 1.8038-.8614 2.9818-.8614.9571 0 1.7302.1914 2.3192.5742.6037.3829 1.0454.8614 1.3252 1.4357h.5301V9.418h2.7168v13.2525h-2.7168v-1.7228h-.5301c-.2798.5448-.7215 1.016-1.3252 1.4136-.589.3975-1.3695.5963-2.3413.5963Zm.6847-2.2529c1.0013 0 1.7965-.4197 2.3855-1.259.589-.854.8835-1.9879.8835-3.4015s-.2945-2.54-.8835-3.3793c-.589-.8541-1.3842-1.2811-2.3855-1.2811-.9424 0-1.6713.3976-2.1866 1.1927-.5154.7952-.7731 1.9511-.7731 3.4677 0 1.5167.2577 2.6726.7731 3.4678.5153.7951 1.2442 1.1927 2.1866 1.1927ZM65.855 22.9991c-2.0173 0-3.5561-.6258-4.6163-1.8774-1.0602-1.2664-1.5903-2.9671-1.5903-5.1023 0-1.4136.2356-2.6357.7068-3.6665.4712-1.0307 1.1633-1.8332 2.0763-2.4075.9276-.5743 2.0541-.8614 3.3793-.8614 1.8996 0 3.35.5964 4.3513 1.7891 1.0013 1.178 1.5019 2.9082 1.5019 5.1905v.7068h-9.1c.0736 1.2075.3828 2.1793.9277 2.9156.5595.7362 1.3473 1.1043 2.3633 1.1043.7657 0 1.3768-.2208 1.8333-.6626.4712-.4417.7951-1.0086.9718-1.7007h2.8493c-.162.854-.4712 1.6271-.9277 2.3192-.4417.6773-1.0528 1.2221-1.8332 1.6344-.7804.4123-1.7449.6185-2.8935.6185Zm-3.2689-8.2165h6.1624c-.0589-1.1339-.3461-2.01-.8614-2.6285-.5007-.6184-1.2001-.9276-2.0983-.9276-.9277 0-1.664.3018-2.2088.9056-.5448.6037-.8761 1.4872-.9939 2.6505ZM39.5352 22.6678V9.4153h2.7167v1.9879h.5301c.2356-.6774.6332-1.2296 1.1927-1.6566.5596-.4417 1.3253-.6626 2.2971-.6626.9277 0 1.6934.2061 2.2971.6184.6185.4123 1.075.9792 1.3695 1.7008h.5301c.265-.6921.6847-1.2517 1.2589-1.6787.589-.427 1.3695-.6405 2.3413-.6405 1.4431 0 2.5033.4712 3.1806 1.4136.6774.9277 1.016 2.1646 1.016 3.7107v8.4595h-2.9818v-7.9073c0-1.0161-.1693-1.8038-.508-2.3634-.3239-.5595-.854-.8393-1.5903-.8393-.8982 0-1.5903.3828-2.0762 1.1485-.4712.7657-.7068 1.7008-.7068 2.8051v7.1564h-3.0039v-7.9073c0-1.0161-.162-1.8038-.4859-2.3634-.324-.5595-.8541-.8393-1.5903-.8393-.8982 0-1.5903.3828-2.0762 1.1485-.486.7657-.7289 1.7008-.7289 2.8051v7.1564h-2.9818ZM34.1226 22.6691c-.3387-.3976-.6111-.8761-.8173-1.4357-.1914-.5595-.2871-1.3988-.2871-2.5179v-7.1122H31.207V9.4166h1.8554v-3.313h2.9155v3.313h2.1867v2.1867H36V18.34c0 1.178.1252 2.0762.3755 2.6946.265.6038.5816 1.1044.9498 1.502v.1325h-3.2027ZM22.9258 22.9576c-1.1779 0-2.1645-.2871-2.9597-.8614-.7951-.589-1.3988-1.4062-1.8111-2.4517-.3976-1.0455-.5964-2.2529-.5964-3.6224 0-1.3841.1988-2.5915.5964-3.6223.4123-1.0307 1.016-1.8333 1.8111-2.4075.8099-.5743 1.8038-.8614 2.9818-.8614.9572 0 1.7302.1914 2.3192.5742.6037.3829 1.0455.8614 1.3253 1.4357h.5301V9.418h2.7167v13.2525h-2.7167v-1.7228h-.5301c-.2798.5448-.7216 1.016-1.3253 1.4136-.589.3975-1.3694.5963-2.3413.5963Zm.6848-2.2529c1.0013 0 1.7964-.4197 2.3854-1.259.589-.854.8835-1.9879.8835-3.4015s-.2945-2.54-.8835-3.3793c-.589-.8541-1.3841-1.2811-2.3854-1.2811-.9424 0-1.6713.3976-2.1867 1.1927-.5154.7952-.7731 1.9511-.7731 3.4677 0 1.5167.2577 2.6726.7731 3.4678.5154.7951 1.2443 1.1927 2.1867 1.1927ZM8.9736 22.9795c-1.7817 0-3.269-.3608-4.4617-1.0823-1.178-.7363-2.0615-1.7744-2.6505-3.1143C1.2871 17.4429 1 15.8673 1 14.0561c0-1.8258.2871-3.4014.8614-4.7267.589-1.34 1.4725-2.3707 2.6505-3.0922 1.1927-.7363 2.68-1.1044 4.4617-1.1044 1.8111 0 3.3057.3681 4.4837 1.1044 1.178.7215 2.0542 1.7523 2.6284 3.0922.589 1.3253.8835 2.9009.8835 4.7267 0 1.8112-.2945 3.3868-.8835 4.7268-.5742 1.3399-1.4504 2.378-2.6284 3.1143-1.178.7215-2.6726 1.0823-4.4837 1.0823Zm0-2.3855c1.6492 0 2.864-.5669 3.6444-1.7007.7804-1.1485 1.1706-2.7609 1.1706-4.8372 0-2.0762-.3902-3.6812-1.1706-4.815-.7804-1.1486-1.9952-1.7228-3.6444-1.7228-1.6345 0-2.842.5742-3.6224 1.7228-.7804 1.1338-1.1706 2.7388-1.1706 4.815 0 2.0763.3902 3.6887 1.1706 4.8372.7804 1.1338 1.9879 1.7007 3.6224 1.7007Z" />
</svg>